<svg width="302" height="71" viewBox="0 0 302 71" fill="none" xmlns="http://www.w3.org/2000/svg">
<g clip-path="url(#clip0_2084_222)">
<path d="M44.0405 66.7598L0 22.7095L22.6542 0.050293H65.4045L88.0754 22.7095L44.0349 66.7598H44.0405ZM6.14389 22.7095L44.0405 60.6145L81.9371 22.7095L63.606 4.39666H24.4583L6.14389 22.7095Z" fill="white"/>
<path d="M50.9721 24.0782V25.4637H46.0961V46.5307H50.9721V47.9162H36.7686V46.5307H41.4044V25.4637H36.7686V24.0782H41.4044V21.1285C41.4044 10.8324 45.6772 6.50281 51.4524 6.50281C53.7983 6.50281 56.5072 7.58661 56.5072 10.4134C56.5072 11.6145 55.3008 12.4022 54.2786 12.4022C52.6533 12.4022 51.8099 11.257 51.8099 9.6313C51.8099 8.97208 52.2902 8.91063 52.2902 8.12851C52.2902 7.82683 51.2681 7.76538 50.8436 7.76538C47.956 7.76538 46.0905 11.257 46.0905 17.2738V24.0726H50.9665L50.9721 24.0782Z" fill="white"/>
<path d="M61.2208 24.6816C61.2208 25.8827 60.2434 26.8604 59.0425 26.8604C57.8417 26.8604 56.8643 25.8827 56.8643 24.6816C56.8643 23.4805 57.8417 22.5028 59.0425 22.5028C60.2434 22.5028 61.2208 23.4749 61.2208 24.6816Z" fill="white"/>
<path d="M94.4597 29.8827V28.7766H97.7271V1.83802H94.4597V0.731873H104.569C108.596 0.731873 111.59 1.35198 113.55 2.59221C115.511 3.83243 116.494 5.73187 116.494 8.28495C116.494 11.028 115.41 13.1173 113.249 14.5531C111.082 15.9889 107.937 16.7095 103.81 16.7095H101.989V28.771H105.452V29.8771H94.4541L94.4597 29.8827ZM101.994 15.609H103.944C106.859 15.609 108.909 15.0727 110.104 13.9944C111.294 12.9218 111.892 11.0391 111.892 8.35198C111.892 5.82684 111.383 4.10617 110.378 3.20115C109.367 2.29053 107.256 1.83802 104.033 1.83802H102V15.609H101.994Z" fill="white"/>
<path d="M117.32 29.8827V28.7765H120.783L130.72 0H131.825L141.092 28.7765H144.141V29.8827H133.06V28.7765H136.651L133.73 19.4246H125.307L122.213 28.7765H125.894V29.8827H117.32ZM125.721 18.1229H133.339L129.658 6.43017L125.721 18.1229Z" fill="white"/>
<path d="M161.612 19.5531H173.235V20.6592H170.571C170.571 23.8492 169.594 26.3017 167.639 28.0223C165.684 29.743 162.891 30.5978 159.272 30.5978C155.418 30.5978 152.335 29.2458 150.017 26.5363C147.699 23.8324 146.543 20.2179 146.543 15.6983C146.543 13.5642 146.873 11.5587 147.526 9.68714C148.179 7.81563 149.14 6.13966 150.397 4.65362C151.637 3.17876 153.039 2.07262 154.597 1.3296C156.155 0.586582 157.831 0.21228 159.618 0.21228C160.992 0.21228 162.282 0.418984 163.506 0.826805C164.729 1.23463 165.84 1.83798 166.851 2.62569L168.454 1.05586H169.08V8.46368H168.147C167.611 6.21228 166.622 4.45809 165.17 3.20111C163.718 1.94412 161.947 1.31843 159.853 1.31843C156.982 1.31843 154.882 2.48044 153.553 4.81005C152.223 7.13965 151.559 10.8156 151.559 15.8492C151.559 20.8827 152.145 24.229 153.324 26.3352C154.502 28.4413 156.435 29.4916 159.138 29.4916C161.489 29.4916 163.176 28.8883 164.204 27.6816C165.226 26.4749 165.74 24.4749 165.74 21.6704V20.6536H161.607V19.5475L161.612 19.5531Z" fill="white"/>
<path d="M175.598 29.8827V28.7766H178.888V1.83802H175.598V0.731873H197.224V7.72629H196.292C195.962 5.50282 195.269 3.96651 194.214 3.11176C193.158 2.2626 191.343 1.83243 188.757 1.83243H183.3V14.1732H184.188C186.076 14.1732 187.422 13.8324 188.215 13.1453C189.008 12.4581 189.477 11.2626 189.623 9.56428H190.533V20.5196H189.6C189.5 18.5699 189.003 17.2123 188.109 16.4358C187.215 15.6648 185.691 15.2794 183.54 15.2794H183.3V28.771H189.472C191.879 28.771 193.655 28.257 194.784 27.2235C195.917 26.19 196.766 24.3129 197.325 21.581H198.297L197.844 29.8715H175.592L175.598 29.8827Z" fill="white"/>
<path d="M200.861 29.8827V28.7765H204.324L214.26 0H215.366L224.632 28.7765H227.682V29.8827H216.6V28.7765H220.192L217.271 19.4246H208.848L205.754 28.7765H209.434V29.8827H200.861ZM209.261 18.1229H216.88L213.199 6.43017L209.261 18.1229Z" fill="white"/>
<path d="M229.865 29.8827V28.7766H233.133V1.83802H229.91V0.731873H238.372L250.799 21.5754V1.83802H247.509V0.731873H255.586V1.83802H252.207V30.5922H251.062L234.523 2.35757V28.771H237.813V29.8771H229.871L229.865 29.8827Z" fill="white"/>
<path d="M263.528 29.8827V28.7766H267.209V1.86036C267.019 1.8436 266.824 1.83802 266.623 1.82684C266.421 1.82126 266.125 1.81567 265.734 1.81567C263.685 1.81567 262.154 2.34081 261.143 3.3855C260.132 4.4302 259.345 6.36316 258.786 9.1788H257.814L258.205 0.731873H280.675L280.999 9.1788H280.027C279.636 6.50841 278.905 4.61455 277.821 3.49724C276.738 2.37992 275.096 1.82126 272.884 1.82126C272.51 1.82126 272.236 1.82126 272.063 1.83243C271.89 1.83802 271.739 1.84919 271.61 1.86595L271.588 28.7822H275.179V29.8883H263.534L263.528 29.8827Z" fill="white"/>
<path d="M284.094 30.0111H283.334V22.3463H284.177C284.87 24.5028 285.965 26.2067 287.456 27.4525C288.947 28.6983 290.634 29.3184 292.511 29.3184C294.605 29.3184 296.37 28.6648 297.806 27.3519C299.241 26.0391 299.962 24.4413 299.962 22.553C299.962 20.3352 297.783 18.5419 293.421 17.1732C293.075 17.0726 292.818 16.9944 292.639 16.9329C288.914 15.7486 286.439 14.5307 285.216 13.2849C283.987 12.0391 283.379 10.3463 283.379 8.20667C283.379 5.81003 284.166 3.86031 285.741 2.35193C287.316 0.843545 289.366 0.0893555 291.891 0.0893555C293.767 0.0893555 295.521 0.603322 297.152 1.63684C297.454 1.83796 297.638 1.93852 297.694 1.93852C297.778 1.92176 297.856 1.89941 297.923 1.86589C297.99 1.83237 298.051 1.77651 298.107 1.70947L298.951 0.659188H299.883V7.32958H299.085C298.375 5.2793 297.387 3.74857 296.108 2.72623C294.829 1.70947 293.27 1.20109 291.422 1.20109C289.746 1.20109 288.338 1.69829 287.188 2.68712C286.043 3.67595 285.468 4.88265 285.468 6.30723C285.468 7.49159 285.909 8.45807 286.786 9.21226C287.668 9.96645 289.109 10.6089 291.114 11.134C291.405 11.2067 291.84 11.324 292.433 11.4804C295.778 12.3743 297.996 13.2346 299.079 14.0558C300.034 14.7933 300.755 15.7095 301.257 16.8044C301.754 17.8994 302.006 19.1452 302.006 20.5307C302.006 23.5475 301.112 25.9497 299.33 27.743C297.549 29.5307 295.141 30.4301 292.109 30.4301C289.986 30.4301 288.048 29.8491 286.283 28.6815C285.993 28.4916 285.831 28.3966 285.786 28.3966C285.741 28.3966 285.691 28.419 285.624 28.4637C285.557 28.5083 285.49 28.5642 285.417 28.6368L284.099 30.0223L284.094 30.0111Z" fill="white"/>
<path d="M107.613 46.9609V47.1061C107.574 47.7933 107.334 48.5083 106.898 49.2514C106.462 50 105.876 50.6815 105.133 51.2961C103.346 52.8044 101.156 53.5754 98.5591 53.6201C97.5481 55.3575 96.7382 57.1955 96.1183 59.1285C96.9505 57.648 97.7436 56.5698 98.4976 55.8826C98.5088 55.8715 98.5256 55.8547 98.5367 55.8435C99.2517 55.2123 99.9666 54.8994 100.693 54.8994C101.095 54.8994 101.43 55.0223 101.698 55.2681C101.966 55.5139 102.145 55.7765 102.234 56.0614C102.324 56.3407 102.363 56.6201 102.363 56.8938C102.363 57.1787 102.324 57.4748 102.24 57.7765C103.033 57.5586 103.653 57.3799 104.105 57.2402C104.558 57.1061 105.038 56.9273 105.546 56.7039C106.055 56.486 106.412 56.2737 106.613 56.067C106.719 55.9553 106.825 55.9553 106.937 56.067C107.043 56.1787 107.043 56.2849 106.937 56.3966C106.697 56.6424 106.295 56.8882 105.736 57.1285C105.178 57.3687 104.669 57.5586 104.206 57.6927C103.742 57.8324 103.061 58.0279 102.162 58.2905C102.15 58.2905 102.128 58.2905 102.1 58.3016C102.072 58.3072 102.056 58.3128 102.039 58.3128C101.81 58.8324 101.497 59.3184 101.089 59.7709C100.335 60.6089 99.503 61.0949 98.587 61.229C98.492 61.2402 98.3915 61.2514 98.2854 61.2514H98.263C97.8721 61.2625 97.576 61.1676 97.375 60.9609C97.213 60.7989 97.1348 60.5754 97.1348 60.3016C97.1348 59.8771 97.4476 59.5028 98.0731 59.1732C98.6987 58.8435 99.6203 58.5083 100.843 58.1676C100.938 57.7821 100.983 57.4022 100.983 57.0167C100.983 56.4972 100.81 56.1396 100.458 55.9497C100 55.6871 99.4416 55.7877 98.7825 56.2402C97.8553 57.0782 96.755 58.7597 95.476 61.2961C95.381 61.5419 95.2414 61.6648 95.0515 61.6648C95.0124 61.6648 94.9789 61.6592 94.9509 61.6424C94.789 61.6145 94.6605 61.486 94.56 61.2625C94.4594 61.0391 94.4259 60.8212 94.4706 60.6145C94.8448 58.7262 95.4648 56.8659 96.3138 55.0391C97.1683 53.2123 98.2072 51.5307 99.4304 49.9944C100.156 49.0894 100.905 48.3016 101.67 47.6313C102.435 46.9609 103.173 46.4469 103.876 46.0894C104.58 45.7318 105.217 45.553 105.781 45.553C106.155 45.553 106.474 45.5977 106.73 45.6871C106.987 45.7765 107.172 45.8994 107.283 46.0558C107.401 46.2123 107.479 46.3631 107.524 46.5083C107.568 46.6536 107.596 46.8044 107.596 46.972L107.613 46.9609ZM98.5591 60.7486C98.978 60.6815 99.3745 60.4581 99.7599 60.0782C100.145 59.7039 100.441 59.2402 100.659 58.6927C98.6149 59.3072 97.5928 59.8435 97.5928 60.2961C97.5928 60.4469 97.6319 60.5586 97.7157 60.6257C97.8218 60.7374 98.0117 60.7821 98.2798 60.7709H98.3021C98.3803 60.7709 98.4697 60.7653 98.5647 60.7486H98.5591ZM98.8439 53.1452C100.056 53.0894 101.19 52.8547 102.251 52.4357C103.312 52.0167 104.189 51.5083 104.882 50.905C105.574 50.3016 106.122 49.6592 106.524 48.972C106.926 48.2849 107.133 47.6368 107.149 47.0223C107.138 46.5139 106.937 46.2625 106.546 46.2625C105.848 46.2625 104.988 46.6257 103.966 47.3519C102.944 48.0782 101.921 49.0502 100.899 50.2681C100.162 51.1452 99.4751 52.1061 98.8439 53.1452Z" fill="white"/>
<path d="M142.493 62.4134C142.627 62.4804 142.661 62.5865 142.594 62.7206C141.812 64.3519 140.667 65.6033 139.153 66.4804C137.64 67.3575 135.864 67.81 133.819 67.8379C132.864 67.8491 131.831 67.7988 130.714 67.6759C129.597 67.553 128.335 67.3519 126.921 67.0726C125.508 66.7933 124.335 66.5474 123.403 66.3352C122.47 66.1229 121.152 65.81 119.459 65.4022C117.795 65.0055 116.527 64.7039 115.661 64.4972C114.796 64.2905 113.757 64.0782 112.545 63.8603C111.333 63.6424 110.322 63.4972 109.501 63.4301C108.68 64.8659 107.764 66.1676 106.747 67.324C105.731 68.4804 104.725 69.3854 103.72 70.0335C102.715 70.6815 101.826 71.0111 101.05 71.0111C100.676 71.0111 100.358 70.9608 100.101 70.8659C99.8437 70.7709 99.6593 70.6424 99.5476 70.486C99.4359 70.3296 99.3522 70.1787 99.3075 70.0446C99.2628 69.905 99.2349 69.7597 99.2349 69.5921V69.4469C99.274 68.7597 99.5141 68.0447 99.9498 67.3016C100.385 66.553 100.966 65.8715 101.692 65.2569C102.564 64.5307 103.569 63.9664 104.709 63.5642C105.842 63.162 107.038 62.9497 108.289 62.9385C108.384 62.7597 108.49 62.5698 108.613 62.3631C108.842 61.9385 109.199 61.2011 109.679 60.1452C110.204 58.9832 110.618 58.1173 110.931 57.5586C110.875 57.6145 110.836 57.6536 110.808 57.6815C110.294 58.2681 109.908 58.715 109.64 59.0167C109.372 59.3184 109.026 59.6703 108.602 60.0726C108.177 60.4748 107.803 60.7709 107.473 60.9553C107.144 61.1396 106.831 61.2346 106.535 61.2346C105.636 61.2346 105.183 60.6592 105.183 59.5083C105.183 58.9888 105.317 58.4078 105.585 57.7597C105.854 57.1173 106.144 56.5586 106.451 56.0949C106.529 55.972 106.641 55.8994 106.786 55.877C106.926 55.8547 107.066 55.8882 107.2 55.972C107.345 56.067 107.44 56.2067 107.479 56.391C107.518 56.5754 107.479 56.7933 107.356 57.0391C106.764 58.0782 106.468 58.9553 106.468 59.6703C106.468 60.2067 106.602 60.4692 106.87 60.4692C107.233 60.4692 107.702 60.2178 108.283 59.7095C108.769 59.2737 109.495 58.4916 110.461 57.3687C111.456 56.2178 112.148 55.4804 112.539 55.1508C112.818 54.8491 113.075 54.81 113.304 55.0279C113.438 55.1396 113.517 55.3016 113.545 55.5195C113.572 55.7374 113.533 55.9162 113.422 56.0558C113.114 56.4413 112.802 56.9106 112.483 57.4636C112.165 58.0167 111.914 58.4916 111.718 58.8826C111.523 59.2737 111.266 59.8324 110.942 60.5586C110.456 61.5865 110.093 62.324 109.853 62.7765C109.853 62.8044 109.819 62.877 109.752 63C110.573 63.067 111.578 63.2122 112.768 63.4301C113.958 63.648 114.98 63.8603 115.835 64.0558C116.689 64.2569 117.929 64.553 119.554 64.9497C121.263 65.3631 122.57 65.6704 123.486 65.8715C124.402 66.0726 125.564 66.3184 126.977 66.6033C128.39 66.8826 129.647 67.0838 130.747 67.2067C131.848 67.3296 132.87 67.3854 133.814 67.3687C135.763 67.3575 137.455 66.9273 138.896 66.0949C140.332 65.2569 141.432 64.067 142.181 62.5195C142.248 62.3854 142.348 62.3463 142.482 62.419L142.493 62.4134ZM100.313 70.2793C101.24 70.2793 102.441 69.648 103.91 68.3798C105.379 67.1117 106.747 65.4525 108.015 63.3966C107.194 63.4245 106.406 63.5419 105.647 63.743C104.887 63.9441 104.211 64.2122 103.619 64.5363C103.027 64.8603 102.486 65.2234 101.988 65.6257C101.491 66.0279 101.084 66.4525 100.76 66.8994C100.436 67.3463 100.184 67.7877 99.9945 68.2346C99.8046 68.6815 99.7096 69.1061 99.7096 69.5195C99.7208 70.0279 99.9275 70.2793 100.313 70.2793Z" fill="white"/>
<path d="M132.189 63.7877L113.841 45.4357L123.28 35.9944H141.092L150.537 45.4357L132.189 63.7877ZM116.399 45.4357L132.189 61.229L147.978 45.4357L140.343 37.8044H124.028L116.399 45.4357Z" fill="white"/>
<path d="M135.076 46.6536V47.229H133.043V56.0056H135.076V56.581H129.156V56.0056H131.088V47.229H129.156V46.6536H131.088V45.4246C131.088 41.1341 132.87 39.3296 135.277 39.3296C136.255 39.3296 137.383 39.7821 137.383 40.9609C137.383 41.4637 136.88 41.7877 136.456 41.7877C135.78 41.7877 135.428 41.3128 135.428 40.6313C135.428 40.3575 135.629 40.3296 135.629 40.0056C135.629 39.8771 135.205 39.8547 135.026 39.8547C133.825 39.8547 133.043 41.3072 133.043 43.8156V46.648H135.076V46.6536Z" fill="white"/>
<path d="M139.343 46.905C139.343 47.4078 138.936 47.8101 138.439 47.8101C137.941 47.8101 137.534 47.4022 137.534 46.905C137.534 46.4078 137.941 46 138.439 46C138.936 46 139.343 46.4078 139.343 46.905Z" fill="white"/>
<path d="M167.22 49.1005V50.1061H163.673V65.4413H167.22V66.4469H156.881V65.4413H160.255V50.1061H156.881V49.1005H160.255V46.9553C160.255 45.0894 160.439 43.4804 160.802 42.1341C161.165 40.7933 161.679 39.6871 162.333 38.8268C162.992 37.9665 163.762 37.3296 164.656 36.9218C165.544 36.514 166.516 36.3073 167.566 36.3073C168.002 36.3073 168.443 36.3575 168.879 36.4581C169.314 36.5587 169.711 36.7262 170.063 36.9609C170.415 37.1955 170.7 37.486 170.917 37.838C171.135 38.1899 171.247 38.6257 171.247 39.1508C171.247 39.5866 171.074 39.9385 170.722 40.2011C170.37 40.4637 170.007 40.5978 169.627 40.5978C169.041 40.5978 168.599 40.4078 168.292 40.0279C167.985 39.648 167.834 39.1676 167.834 38.581C167.834 38.3464 167.89 38.1788 168.007 38.0782C168.125 37.9776 168.181 37.7765 168.181 37.486C168.181 37.3687 168.041 37.2961 167.762 37.2681C167.482 37.2402 167.27 37.2235 167.125 37.2235C166.075 37.2235 165.231 37.8324 164.606 39.0391C163.98 40.2514 163.662 41.9553 163.662 44.1452V49.095H167.209L167.22 49.1005Z" fill="white"/>
<path d="M186.741 63.4302C186.679 64.4525 186.305 65.3073 185.601 65.9944C184.903 66.6816 184.037 67.0223 183.015 67.0223C182.2 67.0223 181.552 66.7821 181.088 66.3017C180.619 65.8212 180.312 65.1676 180.167 64.3519C179.407 65.2849 178.508 65.9665 177.475 66.391C176.436 66.8156 175.363 67.0279 174.258 67.0279C173.559 67.0279 172.9 66.9553 172.286 66.81C171.671 66.6648 171.13 66.4246 170.666 66.0894C170.197 65.7542 169.828 65.3184 169.549 64.7765C169.27 64.2346 169.136 63.5587 169.136 62.7374C169.192 60.6927 170.203 59.1229 172.157 58.0279C174.112 56.933 176.771 56.3855 180.128 56.3855V52.2235C180.128 51.6983 180.033 51.2681 179.843 50.9329C179.653 50.5978 179.413 50.324 179.122 50.1229C178.832 49.9162 178.497 49.7709 178.117 49.6871C177.737 49.5978 177.357 49.5531 176.978 49.5531C176.743 49.5531 176.402 49.5754 175.95 49.6201C175.497 49.6648 175.045 49.743 174.593 49.8603C174.14 49.9776 173.744 50.1397 173.409 50.3408C173.073 50.5475 172.906 50.81 172.906 51.1285C172.906 51.2179 172.973 51.3017 173.101 51.391C173.235 51.4804 173.386 51.5866 173.559 51.7207C173.732 51.8547 173.889 52.0335 174.017 52.2681C174.151 52.5028 174.213 52.7933 174.213 53.1452C174.213 53.6983 174.051 54.1452 173.732 54.4804C173.409 54.8156 172.973 54.9832 172.42 54.9832C171.833 54.9832 171.381 54.7877 171.063 54.3911C170.739 53.9944 170.582 53.4916 170.582 52.8771C170.582 52.4972 170.705 52.0614 170.957 51.5642C171.202 51.067 171.599 50.6089 172.141 50.1843C172.682 49.7598 173.397 49.4022 174.285 49.1117C175.174 48.8212 176.279 48.676 177.592 48.676C179.083 48.676 180.228 48.8156 181.033 49.095C181.837 49.3743 182.429 49.7318 182.809 50.1676C183.188 50.6033 183.406 51.0726 183.468 51.5698C183.524 52.067 183.557 52.5363 183.557 52.9721V63.4022C183.557 64.0726 183.596 64.581 183.669 64.9162C183.741 65.2514 184.01 65.419 184.479 65.419C184.914 65.419 185.249 65.1843 185.484 64.7207C185.719 64.2514 185.892 63.8324 186.009 63.4525H186.752L186.741 63.4302ZM180.128 57.2961C179.43 57.2961 178.631 57.3464 177.743 57.4469C176.849 57.5475 176.011 57.7598 175.224 58.0838C174.436 58.4078 173.772 58.8659 173.23 59.4637C172.688 60.0614 172.42 60.8603 172.42 61.8492C172.42 62.9274 172.727 63.7765 173.342 64.3911C173.956 65.0056 174.771 65.3128 175.793 65.3128C176.492 65.3128 177.1 65.2179 177.609 65.0279C178.117 64.838 178.636 64.5084 179.161 64.0447C179.335 63.8715 179.541 63.6145 179.776 63.2793C180.01 62.9441 180.128 62.3073 180.128 61.3743V57.3017V57.2961Z" fill="white"/>
<path d="M199.99 49.1005V54.0055H199.023C198.699 52.7206 198.152 51.6704 197.381 50.8491C196.605 50.0335 195.566 49.5921 194.248 49.5363C193.343 49.5083 192.617 49.6368 192.081 49.9329C191.539 50.2234 191.126 50.553 190.835 50.9162C190.545 51.2793 190.355 51.648 190.265 52.0111C190.176 52.3743 190.131 52.6201 190.131 52.7318C190.131 53.0558 190.182 53.3407 190.282 53.5866C190.383 53.838 190.668 54.0838 191.137 54.3296C191.606 54.5754 192.31 54.8324 193.259 55.0949C194.209 55.3575 195.516 55.6648 197.18 56.0167C198.872 56.3687 200.057 56.9385 200.727 57.7262C201.397 58.5139 201.732 59.6089 201.732 61.0111C201.732 61.9441 201.565 62.7877 201.229 63.5307C200.894 64.2737 200.442 64.905 199.872 65.4134C199.303 65.9273 198.638 66.3184 197.878 66.5977C197.119 66.8771 196.303 67.0167 195.426 67.0167C194.494 67.0167 193.578 66.8324 192.689 66.4692C191.796 66.1061 191.031 65.5698 190.388 64.8715L189.422 66.4469H188.456V60.6648H189.461C189.869 62.2402 190.601 63.5474 191.651 64.5866C192.701 65.6257 194.047 66.1396 195.678 66.1396C196.175 66.1396 196.672 66.0502 197.169 65.8771C197.666 65.7039 198.118 65.4469 198.526 65.1117C198.934 64.7765 199.269 64.3799 199.532 63.9273C199.794 63.4748 199.928 62.9553 199.928 62.3743C199.928 61.5251 199.381 60.8603 198.286 60.3799C197.191 59.8994 195.722 59.4245 193.885 58.9553C193.153 58.7821 192.46 58.6033 191.801 58.4301C191.142 58.2569 190.567 58 190.07 57.6648C189.573 57.3296 189.176 56.8826 188.886 56.3296C188.595 55.7765 188.45 55.0167 188.45 54.0502C188.45 53.581 188.54 53.0447 188.713 52.4301C188.886 51.8156 189.193 51.2346 189.634 50.6759C190.07 50.1229 190.673 49.648 191.433 49.2514C192.192 48.8547 193.17 48.6592 194.365 48.6592C195.739 48.6592 197.096 49.2011 198.437 50.2793L199.224 49.0949H199.967L199.99 49.1005Z" fill="white"/>
<path d="M205.524 37.2681H203.117V36.2626H204.039C204.854 36.2626 205.681 36.2346 206.513 36.1732C207.345 36.1173 208.155 36.0112 208.943 35.8659V53.3072H209.032C209.646 51.905 210.417 50.7821 211.356 49.9329C212.288 49.0838 213.562 48.6648 215.165 48.6648C215.545 48.6648 216.036 48.7039 216.634 48.7765C217.231 48.8491 217.807 49.0391 218.365 49.3464C218.918 49.6536 219.393 50.1005 219.789 50.6816C220.186 51.2681 220.382 52.0559 220.382 53.0503V65.4525H222.75V66.4581H214.69V65.4525H216.969V53.6201C216.969 52.8324 216.907 52.1955 216.796 51.7151C216.678 51.2346 216.494 50.8603 216.248 50.5978C215.997 50.3352 215.707 50.162 215.371 50.0726C215.036 49.9832 214.651 49.9441 214.21 49.9441C213.45 49.9441 212.757 50.1732 212.132 50.6257C211.501 51.0782 210.948 51.6648 210.468 52.3799C209.987 53.095 209.613 53.8938 209.35 54.7654C209.088 55.6424 208.954 56.4916 208.954 57.3073V65.4581H211.322V66.4637H203.128V65.4581H205.536V37.2849L205.524 37.2681Z" fill="white"/>
<path d="M224.643 66.4525V65.4469H227.575V50.1117H224.643V49.1061H226.09C226.905 49.1061 227.732 49.0838 228.564 49.0391C229.396 48.9944 230.206 48.8715 230.994 48.6648V65.4469H233.58V66.4525H224.643ZM227.14 39.6368C227.14 39.0503 227.352 38.5586 227.776 38.1452C228.201 37.7374 228.687 37.5307 229.245 37.5307C229.77 37.5307 230.273 37.7374 230.759 38.1452C231.239 38.553 231.48 39.0503 231.48 39.6368C231.48 40.3072 231.267 40.8659 230.843 41.3017C230.418 41.7374 229.888 41.9609 229.245 41.9609C228.603 41.9609 228.095 41.7374 227.715 41.2793C227.335 40.8268 227.145 40.2793 227.145 39.6368" fill="white"/>
<path d="M243.192 48.6648C244.331 48.6648 245.42 48.8938 246.454 49.3464C247.493 49.7989 248.386 50.4357 249.146 51.2514C249.905 52.067 250.509 53.0391 250.961 54.1676C251.413 55.2905 251.642 56.514 251.642 57.8268C251.642 59.1397 251.413 60.3631 250.961 61.486C250.509 62.6089 249.9 63.581 249.146 64.4022C248.386 65.2179 247.487 65.8659 246.454 66.3296C245.415 66.7989 244.331 67.0279 243.192 67.0279C242.052 67.0279 240.963 66.7933 239.93 66.3296C238.891 65.8603 237.997 65.2179 237.238 64.4022C236.478 63.5866 235.875 62.6145 235.423 61.486C234.97 60.3631 234.741 59.1397 234.741 57.8268C234.741 56.514 234.965 55.2961 235.423 54.1676C235.875 53.0447 236.484 52.0726 237.238 51.2514C237.997 50.4357 238.897 49.7989 239.93 49.3464C240.969 48.8938 242.052 48.6648 243.192 48.6648ZM243.192 49.5363C242.08 49.5363 241.226 49.7989 240.628 50.324C240.031 50.8492 239.584 51.514 239.293 52.3184C239.003 53.1229 238.835 54.0112 238.791 54.9888C238.746 55.9665 238.724 56.9106 238.724 57.8156C238.724 58.7207 238.746 59.7095 238.791 60.6871C238.835 61.6648 239.003 62.5587 239.293 63.3575C239.584 64.162 240.031 64.8268 240.628 65.3519C241.226 65.8771 242.08 66.1397 243.192 66.1397C244.303 66.1397 245.158 65.8771 245.756 65.3519C246.353 64.8268 246.8 64.162 247.09 63.3575C247.381 62.5531 247.548 61.6648 247.593 60.6871C247.638 59.7095 247.66 58.7542 247.66 57.8156C247.66 56.8771 247.638 55.9665 247.593 54.9888C247.548 54.0112 247.381 53.1173 247.09 52.3184C246.8 51.514 246.353 50.8492 245.756 50.324C245.158 49.7989 244.303 49.5363 243.192 49.5363Z" fill="white"/>
<path d="M255.229 50.1061H252.821V49.1005H254.966C255.374 49.1005 255.782 49.0726 256.195 49.0112C256.603 48.9832 257.01 48.9385 257.424 48.8827C257.831 48.8268 258.239 48.7486 258.652 48.6648V53.3073H258.742C259.356 51.905 260.127 50.7821 261.065 49.9329C261.998 49.0838 263.271 48.6648 264.874 48.6648C265.254 48.6648 265.746 48.7039 266.343 48.7765C266.941 48.8492 267.516 49.0391 268.075 49.3464C268.628 49.6536 269.103 50.1005 269.499 50.6816C269.896 51.2681 270.091 52.0559 270.091 53.0503V65.4469H272.459V66.4525H264.4V65.4469H266.679V53.6201C266.679 52.8324 266.623 52.1955 266.505 51.7151C266.388 51.2346 266.204 50.8603 265.958 50.5978C265.712 50.3352 265.416 50.162 265.081 50.0726C264.746 49.9832 264.361 49.9385 263.919 49.9385C263.16 49.9385 262.467 50.1676 261.836 50.6201C261.21 51.0726 260.652 51.6592 260.172 52.3743C259.691 53.0894 259.317 53.8883 259.055 54.7598C258.792 55.6369 258.658 56.4804 258.658 57.3017V65.4525H261.026V66.4581H252.832V65.4525H255.24V50.1173L255.229 50.1061Z" fill="white"/>
<path d="M272.571 49.1005H275.157V43.7095C275.743 43.7095 276.302 43.7039 276.844 43.6871C277.385 43.6704 277.933 43.6201 278.486 43.5307V49.0949H282.34V50.1005H278.486V63.5084C278.486 63.7151 278.491 63.9329 278.508 64.1676C278.525 64.4022 278.581 64.6145 278.681 64.8044C278.782 64.9944 278.949 65.1564 279.184 65.2849C279.418 65.4134 279.737 65.4804 280.15 65.4804C280.737 65.4804 281.2 65.3128 281.552 64.9776C281.904 64.6424 282.25 64.2681 282.602 63.8603L283.3 64.3408C282.893 65.1899 282.222 65.8435 281.284 66.3128C280.351 66.7821 279.446 67.0111 278.569 67.0111C277.782 67.0111 277.151 66.9106 276.687 66.7039C276.218 66.4972 275.866 66.229 275.637 65.8938C275.403 65.5586 275.252 65.1564 275.179 64.6871C275.107 64.2179 275.067 63.7206 275.067 63.1955V50.0949H272.571V49.0894V49.1005Z" fill="white"/>
<path d="M284.172 50.1061V49.1005H292.053V50.1061H289.735L293.98 62.6815H294.069L298.493 50.1061H295.823V49.1005H301.777V50.1061H299.677L293.633 67.0223H292.142L286.272 50.1061H284.172Z" fill="white"/>
</g>
<defs>
<clipPath id="clip0_2084_222">
<rect width="302" height="71" fill="white"/>
</clipPath>
</defs>
</svg>
